<?xml version="1.0" standalone="no"?><!DOCTYPE svg PUBLIC "-//W3C//DTD SVG 1.1//EN" "http://www.w3.org/Graphics/SVG/1.1/DTD/svg11.dtd"><svg t="1776562067900" class="icon" viewBox="0 0 1024 1024" version="1.1" xmlns="http://www.w3.org/2000/svg" p-id="9106" xmlns:xlink="http://www.w3.org/1999/xlink" width="200" height="200"><path d="M112 438.08L35.36 717.76V181.12a50.08 50.08 0 0 1 50.08-50.08h238.24a50.24 50.24 0 0 1 35.52 14.72l102.56 102.72a10.72 10.72 0 0 0 7.2 2.88h358.4a50.08 50.08 0 0 1 50.08 50.08v70.24H198.72A90.24 90.24 0 0 0 112 438.08zM978.24 432a49.92 49.92 0 0 0-39.84-19.84H198.72a50.24 50.24 0 0 0-48 37.12L46.4 829.76a50.08 50.08 0 0 0 35.2 61.44 53.12 53.12 0 0 0 13.28 1.76h739.68a50.24 50.24 0 0 0 48-36.96l104-380.96a49.92 49.92 0 0 0-8.32-43.04z" fill="#5b5bd6" p-id="9107"></path></svg>