<?xml version="1.0" standalone="no"?><!DOCTYPE svg PUBLIC "-//W3C//DTD SVG 1.1//EN" "http://www.w3.org/Graphics/SVG/1.1/DTD/svg11.dtd"><svg t="1776561437661" class="icon" viewBox="0 0 1024 1024" version="1.1" xmlns="http://www.w3.org/2000/svg" p-id="2638" xmlns:xlink="http://www.w3.org/1999/xlink" width="200" height="200"><path d="M139.636364 0a48.407273 48.407273 0 0 0-34.909091 15.36 54.690909 54.690909 0 0 0-15.127273 35.84v921.6a49.338182 49.338182 0 0 0 15.127273 35.84A49.803636 49.803636 0 0 0 139.636364 1024h744.727272a48.407273 48.407273 0 0 0 35.374546-15.36 50.734545 50.734545 0 0 0 15.127273-35.84V290.210909L647.214545 0z" fill="#CACACA" p-id="2639"></path><path d="M934.4 290.210909H698.181818a48.407273 48.407273 0 0 1-35.374545-15.36 49.338182 49.338182 0 0 1-15.127273-35.84V0z" fill="#E6E6E6" p-id="2640"></path><path d="M473.134545 539.229091l-114.967272-161.978182h79.592727l75.170909 115.898182 78.429091-115.898182h77.032727l-117.527272 161.978182 123.345454 172.450909h-80.290909l-82.850909-122.88-82.618182 123.810909h-78.661818l123.345454-173.381818z" fill="#FFFFFF" p-id="2641"></path></svg>